<svg xmlns="http://www.w3.org/2000/svg" xmlns:xlink="http://www.w3.org/1999/xlink" width="24" height="24" viewBox="0 0 24 24" version="1.1">
    <title>后退15</title>
    <g id="后退15" stroke="none" stroke-width="1" fill="none" fill-rule="evenodd">
        <g id="编组-2备份" transform="translate(11.670000, 12.150000) scale(-1, 1) translate(-11.670000, -12.150000) translate(0.670000, 1.650000)" fill="#000000" fill-rule="nonzero">
            <path d="M10.35,-1.81188398e-13 C11.7264023,-1.81188398e-13 13.0665626,0.269200506 14.3118813,0.785587087 C14.9386827,1.04549795 15.5377634,1.36658698 16.1009454,1.74360861 C16.664142,2.12063999 17.1892881,2.5521777 17.6685552,3.03144481 C18.1478223,3.51071193 18.57936,4.03585802 18.9563914,4.59905457 C19.3216879,5.14472207 19.6344767,5.72409014 19.8899865,6.32972033 L20.8115427,6.02281909 C20.9687257,5.97042476 21.1386217,6.05537275 21.191016,6.21255575 C21.2090585,6.26668307 21.2112917,6.32483309 21.1974538,6.38018477 L20.4368663,9.42253497 C20.3966816,9.58327344 20.2338013,9.68100165 20.0730628,9.64081703 C20.036549,9.63168858 20.002079,9.61577072 19.971452,9.59389432 L17.3093956,7.69242545 C17.1745718,7.59612275 17.1433443,7.40875772 17.239647,7.27393395 C17.2764991,7.22234101 17.3287496,7.18375013 17.3888988,7.16370042 L18.46,6.806 L18.3893154,6.64420667 C18.1950347,6.22349583 17.967811,5.81873468 17.7099189,5.43350433 C17.3873572,4.95167274 17.0180681,4.5022781 16.607895,4.09210499 C16.1977219,3.68193187 15.7483273,3.31264276 15.2664957,2.99008108 C14.7849577,2.66771598 14.2729029,2.39327019 13.7373256,2.1711865 C12.6733548,1.72999803 11.528356,1.5 10.35,1.5 C5.46227996,1.5 1.5,5.46227996 1.5,10.35 C1.5,15.23772 5.46227996,19.2 10.35,19.2 C12.7297886,19.2 14.9584228,18.2573672 16.607895,16.607895 C17.4296359,15.7861541 18.0837132,14.8107301 18.5288135,13.7373256 C18.6874727,13.3547029 19.1262683,13.1731445 19.5088911,13.3318037 C19.8915138,13.4904629 20.0730721,13.9292586 19.9144129,14.3118813 C19.3936496,15.5677548 18.6289282,16.7081822 17.6685552,17.6685552 C15.7405671,19.5965433 13.1317024,20.7 10.35,20.7 C4.63385284,20.7 3.37507799e-13,16.0661472 3.37507799e-13,10.35 C3.37507799e-13,4.63385284 4.63385284,-1.81188398e-13 10.35,-1.81188398e-13 Z M10.376,6.17 L10.376,10.886 L9.02,10.886 C8.852,10.5099999 8.56799994,10.322 8.168,10.322 C7.856,10.322 7.62600012,10.4160001 7.478,10.604 C7.32999988,10.7919999 7.256,11.0820001 7.256,11.474 L7.256,12.098 C7.256,12.4739999 7.32999988,12.7600001 7.478,12.956 C7.62599353,13.1520001 7.85199365,13.25 8.156,13.25 C8.43599994,13.25 8.65600006,13.178 8.816,13.034 C8.97599994,12.89 9.056,12.6899999 9.056,12.434 L9.056,12.362 L10.496,12.362 L10.496,12.542 C10.496,13.1819999 10.286,13.682 9.866,14.042 C9.446,14.402 8.876,14.582 8.156,14.582 C7.39599988,14.582 6.80199988,14.3699999 6.374,13.946 C5.94600012,13.5220002 5.732,12.9300003 5.732,12.17 L5.732,11.39 C5.732,10.622 5.91000012,10.0320001 6.266,9.62 C6.62199988,9.20799988 7.148,9.002 7.844,9.002 C8.30799878,9.002 8.69999884,9.12999988 9.02,9.386 L9.02,7.514 L5.9,7.514 L5.9,6.17 L10.376,6.17 Z M13.448,6.17 L14.84,7.214 L14.84,8.918 L13.448,7.91 L13.448,14.45 L11.876,14.45 L11.876,6.17 L13.448,6.17 Z" id="形状结合"/>
        </g>
    </g>
</svg>