<svg xmlns="http://www.w3.org/2000/svg" xmlns:xlink="http://www.w3.org/1999/xlink" width="24" height="24" viewBox="0 0 24 24" version="1.1">
    <title>前进15</title>
    <g id="前进15" stroke="none" stroke-width="1" fill="none" fill-rule="evenodd">
        <g id="编组-2备份" transform="translate(1.170000, 1.650000)" fill="#000000" fill-rule="nonzero">
            <path d="M10.35,-1.81188398e-13 C11.7264023,-1.81188398e-13 13.0665626,0.269200506 14.3118813,0.785587087 C14.9386827,1.04549795 15.5377634,1.36658698 16.1009454,1.74360861 C16.664142,2.12063999 17.1892881,2.5521777 17.6685552,3.03144481 C18.1478223,3.51071193 18.57936,4.03585802 18.9563914,4.59905457 C19.3216879,5.14472207 19.6344767,5.72409014 19.8899865,6.32972033 L20.8115427,6.02281909 C20.9687257,5.97042476 21.1386217,6.05537275 21.191016,6.21255575 C21.2090585,6.26668307 21.2112917,6.32483309 21.1974538,6.38018477 L20.4368663,9.42253497 C20.3966816,9.58327344 20.2338013,9.68100165 20.0730628,9.64081703 C20.036549,9.63168858 20.002079,9.61577072 19.971452,9.59389432 L17.3093956,7.69242545 C17.1745718,7.59612275 17.1433443,7.40875772 17.239647,7.27393395 C17.2764991,7.22234101 17.3287496,7.18375013 17.3888988,7.16370042 L18.46,6.806 L18.3893154,6.64420667 C18.1950347,6.22349583 17.967811,5.81873468 17.7099189,5.43350433 C17.3873572,4.95167274 17.0180681,4.5022781 16.607895,4.09210499 C16.1977219,3.68193187 15.7483273,3.31264276 15.2664957,2.99008108 C14.7849577,2.66771598 14.2729029,2.39327019 13.7373256,2.1711865 C12.6733548,1.72999803 11.528356,1.5 10.35,1.5 C5.46227996,1.5 1.5,5.46227996 1.5,10.35 C1.5,15.23772 5.46227996,19.2 10.35,19.2 C12.7297886,19.2 14.9584228,18.2573672 16.607895,16.607895 C17.4296359,15.7861541 18.0837132,14.8107301 18.5288135,13.7373256 C18.6874727,13.3547029 19.1262683,13.1731445 19.5088911,13.3318037 C19.8915138,13.4904629 20.0730721,13.9292586 19.9144129,14.3118813 C19.3936496,15.5677548 18.6289282,16.7081822 17.6685552,17.6685552 C15.7405671,19.5965433 13.1317024,20.7 10.35,20.7 C4.63385284,20.7 3.37507799e-13,16.0661472 3.37507799e-13,10.35 C3.37507799e-13,4.63385284 4.63385284,-1.81188398e-13 10.35,-1.81188398e-13 Z M14.832,6.17 L14.832,7.514 L11.712,7.514 L11.712,9.386 C12.0320012,9.12999988 12.4240012,9.002 12.888,9.002 C13.584,9.002 14.1100001,9.20799988 14.466,9.62 C14.8219999,10.0320001 15,10.622 15,11.39 L15,11.39 L15,12.17 C15,12.9300003 14.7859999,13.5220002 14.358,13.946 C13.9300001,14.3699999 13.3360001,14.582 12.576,14.582 C11.856,14.582 11.286,14.402 10.866,14.042 C10.446,13.682 10.236,13.1819999 10.236,12.542 L10.236,12.542 L10.236,12.362 L11.676,12.362 L11.676,12.434 C11.676,12.6899999 11.7560001,12.89 11.916,13.034 C12.0759999,13.178 12.2960001,13.25 12.576,13.25 C12.8800063,13.25 13.1060065,13.1520001 13.254,12.956 C13.4020001,12.7600001 13.476,12.4739999 13.476,12.098 L13.476,12.098 L13.476,11.474 C13.476,11.0820001 13.4020001,10.7919999 13.254,10.604 C13.1059999,10.4160001 12.876,10.322 12.564,10.322 C12.1640001,10.322 11.88,10.5099999 11.712,10.886 L11.712,10.886 L10.356,10.886 L10.356,6.17 L14.832,6.17 Z M8.856,6.17 L8.856,14.45 L7.284,14.45 L7.284,7.91 L5.892,8.918 L5.892,7.214 L7.284,6.17 L8.856,6.17 Z" id="形状结合"/>
        </g>
    </g>
</svg>